<svg xmlns="http://www.w3.org/2000/svg" width="1920" height="1080"><path d="M134,1335L-142,1380L434,1329Z" fill="#ca7a57" stroke="#ca7a57" stroke-width="1.51"/><path d="M992,1328L434,1329L1187,1359Z" fill="#c55732" stroke="#c55732" stroke-width="1.51"/><path d="M434,1329L-142,1380L1187,1359Z" fill="#c56e45" stroke="#c56e45" stroke-width="1.51"/><path d="M560,-259L841,-240L1526,-297Z" fill="#ffc09c" stroke="#ffc09c" stroke-width="1.51"/><path d="M336,-288L560,-259L1526,-297Z" fill="#ffcca9" stroke="#ffcca9" stroke-width="1.51"/><path d="M336,-288L1526,-297L1843,-306Z" fill="#ffb297" stroke="#ffb297" stroke-width="1.51"/><path d="M-70,-291L336,-288L1843,-306Z" fill="#ffd4b2" stroke="#ffd4b2" stroke-width="1.51"/><path d="M2067,1257L1989,1352L2126,1202Z" fill="#9b0001" stroke="#9b0001" stroke-width="1.51"/><path d="M1843,-306L2033,-201L2131,-209Z" fill="#dd886c" stroke="#dd886c" stroke-width="1.51"/><path d="M2131,-209L2008,-108L2182,6Z" fill="#d18060" stroke="#d18060" stroke-width="1.51"/><path d="M2062,947L2126,1202L2211,947Z" fill="#ad140b" stroke="#ad140b" stroke-width="1.51"/><path d="M2123,674L2165,867L2211,947Z" fill="#b8301d" stroke="#b8301d" stroke-width="1.51"/><path d="M2196,173L1998,355L2227,210Z" fill="#c96e45" stroke="#c96e45" stroke-width="1.51"/><path d="M1998,355L2108,521L2227,210Z" fill="#ca663d" stroke="#ca663d" stroke-width="1.51"/><path d="M2182,6L2196,173L2227,210Z" fill="#c5734a" stroke="#c5734a" stroke-width="1.51"/><path d="M2108,521L2123,674L2227,210Z" fill="#c55933" stroke="#c55933" stroke-width="1.51"/><path d="M2123,674L2211,947L2227,210Z" fill="#bf4829" stroke="#bf4829" stroke-width="1.51"/><path d="M2182,6L1898,188L2196,173Z" fill="#cf764c" stroke="#cf764c" stroke-width="1.51"/><path d="M2165,867L2062,947L2211,947Z" fill="#b42315" stroke="#b42315" stroke-width="1.51"/><path d="M2123,674L2053,678L2165,867Z" fill="#c13c25" stroke="#c13c25" stroke-width="1.51"/><path d="M2053,678L1968,790L2165,867Z" fill="#c33822" stroke="#c33822" stroke-width="1.51"/><path d="M1898,188L1998,355L2196,173Z" fill="#d37146" stroke="#d37146" stroke-width="1.51"/><path d="M2008,-108L1898,188L2182,6Z" fill="#d67d55" stroke="#d67d55" stroke-width="1.51"/><path d="M2108,521L2053,678L2123,674Z" fill="#c64929" stroke="#c64929" stroke-width="1.51"/><path d="M2062,947L1907,1182L2126,1202Z" fill="#af0b05" stroke="#af0b05" stroke-width="1.51"/><path d="M2033,-201L2008,-108L2131,-209Z" fill="#d78466" stroke="#d78466" stroke-width="1.51"/><path d="M1968,790L2062,947L2165,867Z" fill="#be2c1a" stroke="#be2c1a" stroke-width="1.51"/><path d="M1963,520L2053,678L2108,521Z" fill="#cd4f2b" stroke="#cd4f2b" stroke-width="1.51"/><path d="M1998,355L1963,520L2108,521Z" fill="#d15c34" stroke="#d15c34" stroke-width="1.51"/><path d="M1907,1182L2067,1257L2126,1202Z" fill="#a40001" stroke="#a40001" stroke-width="1.51"/><path d="M1834,1106L1907,1182L2062,947Z" fill="#ba1007" stroke="#ba1007" stroke-width="1.51"/><path d="M1785,89L1898,188L2008,-108Z" fill="#e17f54" stroke="#e17f54" stroke-width="1.51"/><path d="M1968,790L1838,857L2062,947Z" fill="#c72e1a" stroke="#c72e1a" stroke-width="1.51"/><path d="M1792,973L1834,1106L2062,947Z" fill="#c21b0e" stroke="#c21b0e" stroke-width="1.51"/><path d="M1907,1182L1989,1352L2067,1257Z" fill="#a20001" stroke="#a20001" stroke-width="1.51"/><path d="M1963,520L1864,571L2053,678Z" fill="#d34f2b" stroke="#d34f2b" stroke-width="1.51"/><path d="M1838,857L1792,973L2062,947Z" fill="#c82615" stroke="#c82615" stroke-width="1.51"/><path d="M1864,571L1968,790L2053,678Z" fill="#d04528" stroke="#d04528" stroke-width="1.51"/><path d="M1898,188L1880,349L1998,355Z" fill="#db7143" stroke="#db7143" stroke-width="1.51"/><path d="M1843,-306L2008,-108L2033,-201Z" fill="#e08869" stroke="#e08869" stroke-width="1.51"/><path d="M1759,1282L1675,1369L1989,1352Z" fill="#a50b06" stroke="#a50b06" stroke-width="1.51"/><path d="M1880,349L1963,520L1998,355Z" fill="#d86539" stroke="#d86539" stroke-width="1.51"/><path d="M1843,-306L1733,-42L2008,-108Z" fill="#e68a68" stroke="#e68a68" stroke-width="1.51"/><path d="M1733,-42L1785,89L2008,-108Z" fill="#e5855e" stroke="#e5855e" stroke-width="1.51"/><path d="M1880,349L1859,521L1963,520Z" fill="#db6035" stroke="#db6035" stroke-width="1.51"/><path d="M1907,1182L1759,1282L1989,1352Z" fill="#a90302" stroke="#a90302" stroke-width="1.51"/><path d="M1864,571L1838,857L1968,790Z" fill="#d44127" stroke="#d44127" stroke-width="1.51"/><path d="M841,-240L962,-209L1526,-297Z" fill="#ffb897" stroke="#ffb897" stroke-width="1.51"/><path d="M1859,521L1864,571L1963,520Z" fill="#da572e" stroke="#da572e" stroke-width="1.51"/><path d="M1635,660L1838,857L1864,571Z" fill="#db4b2d" stroke="#db4b2d" stroke-width="1.51"/><path d="M1617,234L1880,349L1898,188Z" fill="#e3784b" stroke="#e3784b" stroke-width="1.51"/><path d="M1834,1106L1759,1282L1907,1182Z" fill="#b60904" stroke="#b60904" stroke-width="1.51"/><path d="M1645,389L1859,521L1880,349Z" fill="#e2693e" stroke="#e2693e" stroke-width="1.51"/><path d="M1785,89L1617,234L1898,188Z" fill="#e67f51" stroke="#e67f51" stroke-width="1.51"/><path d="M1526,-297L1601,-244L1843,-306Z" fill="#f3977c" stroke="#f3977c" stroke-width="1.51"/><path d="M1601,-244L1733,-42L1843,-306Z" fill="#ee9172" stroke="#ee9172" stroke-width="1.51"/><path d="M1617,234L1645,389L1880,349Z" fill="#e7774a" stroke="#e7774a" stroke-width="1.51"/><path d="M1859,521L1635,660L1864,571Z" fill="#df5631" stroke="#df5631" stroke-width="1.51"/><path d="M1645,389L1635,660L1859,521Z" fill="#e46037" stroke="#e46037" stroke-width="1.51"/><path d="M1644,1079L1759,1282L1834,1106Z" fill="#be150a" stroke="#be150a" stroke-width="1.51"/><path d="M1792,973L1708,1016L1834,1106Z" fill="#c72012" stroke="#c72012" stroke-width="1.51"/><path d="M1635,660L1569,827L1838,857Z" fill="#dd462d" stroke="#dd462d" stroke-width="1.51"/><path d="M962,-209L1138,-184L1526,-297Z" fill="#ffb193" stroke="#ffb193" stroke-width="1.51"/><path d="M1569,827L1792,973L1838,857Z" fill="#d43520" stroke="#d43520" stroke-width="1.51"/><path d="M1708,1016L1644,1079L1834,1106Z" fill="#c72012" stroke="#c72012" stroke-width="1.51"/><path d="M1347,1285L1187,1359L1675,1369Z" fill="#b82f1d" stroke="#b82f1d" stroke-width="1.51"/><path d="M1733,-42L1683,-16L1785,89Z" fill="#eb8960" stroke="#eb8960" stroke-width="1.51"/><path d="M1683,-16L1651,35L1785,89Z" fill="#ec885f" stroke="#ec885f" stroke-width="1.51"/><path d="M1651,35L1617,234L1785,89Z" fill="#eb8558" stroke="#eb8558" stroke-width="1.51"/><path d="M1569,827L1708,1016L1792,973Z" fill="#d42f1d" stroke="#d42f1d" stroke-width="1.51"/><path d="M1543,-133L1683,-16L1733,-42Z" fill="#f0906a" stroke="#f0906a" stroke-width="1.51"/><path d="M1601,-244L1543,-133L1733,-42Z" fill="#f39472" stroke="#f39472" stroke-width="1.51"/><path d="M1487,1265L1675,1369L1759,1282Z" fill="#b2180e" stroke="#b2180e" stroke-width="1.51"/><path d="M1644,1079L1487,1265L1759,1282Z" fill="#bf1a0f" stroke="#bf1a0f" stroke-width="1.51"/><path d="M1485,479L1635,660L1645,389Z" fill="#ec683f" stroke="#ec683f" stroke-width="1.51"/><path d="M1487,1265L1347,1285L1675,1369Z" fill="#b82616" stroke="#b82616" stroke-width="1.51"/><path d="M1526,164L1617,234L1651,35Z" fill="#f0885a" stroke="#f0885a" stroke-width="1.51"/><path d="M1569,827L1644,1079L1708,1016Z" fill="#d42d1d" stroke="#d42d1d" stroke-width="1.51"/><path d="M1485,479L1507,651L1635,660Z" fill="#eb623d" stroke="#eb623d" stroke-width="1.51"/><path d="M1569,827L1493,1089L1644,1079Z" fill="#d5311f" stroke="#d5311f" stroke-width="1.51"/><path d="M1493,1089L1487,1265L1644,1079Z" fill="#ca2716" stroke="#ca2716" stroke-width="1.51"/><path d="M1543,-133L1651,35L1683,-16Z" fill="#f18f69" stroke="#f18f69" stroke-width="1.51"/><path d="M1138,-184L1295,-185L1526,-297Z" fill="#fdaa8d" stroke="#fdaa8d" stroke-width="1.51"/><path d="M1405,905L1493,1089L1569,827Z" fill="#dd3e29" stroke="#dd3e29" stroke-width="1.51"/><path d="M1507,651L1569,827L1635,660Z" fill="#e65337" stroke="#e65337" stroke-width="1.51"/><path d="M1617,234L1452,347L1645,389Z" fill="#ee7e52" stroke="#ee7e52" stroke-width="1.51"/><path d="M1543,-133L1526,164L1651,35Z" fill="#f29066" stroke="#f29066" stroke-width="1.51"/><path d="M1452,347L1485,479L1645,389Z" fill="#ef794d" stroke="#ef794d" stroke-width="1.51"/><path d="M1303,-57L1526,164L1543,-133Z" fill="#f69971" stroke="#f69971" stroke-width="1.51"/><path d="M1507,651L1439,723L1569,827Z" fill="#e7563a" stroke="#e7563a" stroke-width="1.51"/><path d="M1526,164L1452,347L1617,234Z" fill="#f08659" stroke="#f08659" stroke-width="1.51"/><path d="M1526,-297L1543,-133L1601,-244Z" fill="#f79a7d" stroke="#f79a7d" stroke-width="1.51"/><path d="M1439,723L1405,905L1569,827Z" fill="#e54f35" stroke="#e54f35" stroke-width="1.51"/><path d="M1303,-57L1255,90L1526,164Z" fill="#f89c71" stroke="#f89c71" stroke-width="1.51"/><path d="M1526,-297L1295,-185L1543,-133Z" fill="#f9a182" stroke="#f9a182" stroke-width="1.51"/><path d="M1295,-185L1303,-57L1543,-133Z" fill="#faa381" stroke="#faa381" stroke-width="1.51"/><path d="M1295,1180L1487,1265L1493,1089Z" fill="#cc311c" stroke="#cc311c" stroke-width="1.51"/><path d="M1255,90L1452,347L1526,164Z" fill="#f49163" stroke="#f49163" stroke-width="1.51"/><path d="M1255,90L1228,327L1452,347Z" fill="#f79467" stroke="#f79467" stroke-width="1.51"/><path d="M1295,1180L1347,1285L1487,1265Z" fill="#c5341f" stroke="#c5341f" stroke-width="1.51"/><path d="M1405,905L1306,966L1493,1089Z" fill="#dd412a" stroke="#dd412a" stroke-width="1.51"/><path d="M1485,479L1269,707L1507,651Z" fill="#ef6944" stroke="#ef6944" stroke-width="1.51"/><path d="M1269,707L1439,723L1507,651Z" fill="#ed6242" stroke="#ed6242" stroke-width="1.51"/><path d="M1260,389L1269,707L1485,479Z" fill="#f4774e" stroke="#f4774e" stroke-width="1.51"/><path d="M1306,966L1295,1180L1493,1089Z" fill="#d73e27" stroke="#d73e27" stroke-width="1.51"/><path d="M1452,347L1260,389L1485,479Z" fill="#f38156" stroke="#f38156" stroke-width="1.51"/><path d="M1236,808L1405,905L1439,723Z" fill="#e9593d" stroke="#e9593d" stroke-width="1.51"/><path d="M1269,707L1236,808L1439,723Z" fill="#ee6346" stroke="#ee6346" stroke-width="1.51"/><path d="M1228,327L1260,389L1452,347Z" fill="#f78c60" stroke="#f78c60" stroke-width="1.51"/><path d="M1236,808L1306,966L1405,905Z" fill="#e65238" stroke="#e65238" stroke-width="1.51"/><path d="M864,1283L434,1329L992,1328Z" fill="#c96038" stroke="#c96038" stroke-width="1.51"/><path d="M1128,250L1228,327L1255,90Z" fill="#fa9c6e" stroke="#fa9c6e" stroke-width="1.51"/><path d="M1055,514L1146,685L1260,389Z" fill="#f88255" stroke="#f88255" stroke-width="1.51"/><path d="M1260,389L1146,685L1269,707Z" fill="#f57850" stroke="#f57850" stroke-width="1.51"/><path d="M1185,1034L1295,1180L1306,966Z" fill="#dc482e" stroke="#dc482e" stroke-width="1.51"/><path d="M1295,1180L1178,1209L1347,1285Z" fill="#cb3d25" stroke="#cb3d25" stroke-width="1.51"/><path d="M1178,1209L1187,1359L1347,1285Z" fill="#c43e26" stroke="#c43e26" stroke-width="1.51"/><path d="M1211,728L1236,808L1269,707Z" fill="#f06849" stroke="#f06849" stroke-width="1.51"/><path d="M1185,1034L1178,1209L1295,1180Z" fill="#d64529" stroke="#d64529" stroke-width="1.51"/><path d="M1125,34L1255,90L1303,-57Z" fill="#fca67c" stroke="#fca67c" stroke-width="1.51"/><path d="M1170,-95L1125,34L1303,-57Z" fill="#fdaa82" stroke="#fdaa82" stroke-width="1.51"/><path d="M1295,-185L1170,-95L1303,-57Z" fill="#fdaa87" stroke="#fdaa87" stroke-width="1.51"/><path d="M1236,808L1185,1034L1306,966Z" fill="#e65337" stroke="#e65337" stroke-width="1.51"/><path d="M1138,-184L1170,-95L1295,-185Z" fill="#feaf8d" stroke="#feaf8d" stroke-width="1.51"/><path d="M1029,455L1055,514L1260,389Z" fill="#fa8d5d" stroke="#fa8d5d" stroke-width="1.51"/><path d="M1146,685L1211,728L1269,707Z" fill="#f26e4c" stroke="#f26e4c" stroke-width="1.51"/><path d="M965,823L1185,1034L1236,808Z" fill="#eb603f" stroke="#eb603f" stroke-width="1.51"/><path d="M1125,34L1128,250L1255,90Z" fill="#fba475" stroke="#fba475" stroke-width="1.51"/><path d="M1228,327L1029,455L1260,389Z" fill="#f99162" stroke="#f99162" stroke-width="1.51"/><path d="M965,823L993,1015L1185,1034Z" fill="#e95e3a" stroke="#e95e3a" stroke-width="1.51"/><path d="M1211,728L1146,685L1236,808Z" fill="#f16c4a" stroke="#f16c4a" stroke-width="1.51"/><path d="M1146,685L965,823L1236,808Z" fill="#f26e4a" stroke="#f26e4a" stroke-width="1.51"/><path d="M1125,34L1013,130L1128,250Z" fill="#fca876" stroke="#fca876" stroke-width="1.51"/><path d="M1128,250L1029,455L1228,327Z" fill="#fa9968" stroke="#fa9968" stroke-width="1.51"/><path d="M993,1015L1178,1209L1185,1034Z" fill="#dd502f" stroke="#dd502f" stroke-width="1.51"/><path d="M1178,1209L992,1328L1187,1359Z" fill="#c64728" stroke="#c64728" stroke-width="1.51"/><path d="M970,305L1029,455L1128,250Z" fill="#fc9f6b" stroke="#fc9f6b" stroke-width="1.51"/><path d="M1055,514L1011,576L1146,685Z" fill="#f98254" stroke="#f98254" stroke-width="1.51"/><path d="M993,1015L937,1180L1178,1209Z" fill="#db532e" stroke="#db532e" stroke-width="1.51"/><path d="M937,1180L992,1328L1178,1209Z" fill="#cf4e2b" stroke="#cf4e2b" stroke-width="1.51"/><path d="M902,-81L1125,34L1170,-95Z" fill="#ffb287" stroke="#ffb287" stroke-width="1.51"/><path d="M1138,-184L962,-209L1170,-95Z" fill="#ffb691" stroke="#ffb691" stroke-width="1.51"/><path d="M962,-209L902,-81L1170,-95Z" fill="#ffb990" stroke="#ffb990" stroke-width="1.51"/><path d="M1011,576L965,823L1146,685Z" fill="#f67a51" stroke="#f67a51" stroke-width="1.51"/><path d="M902,-81L1013,130L1125,34Z" fill="#ffb282" stroke="#ffb282" stroke-width="1.51"/><path d="M1013,130L970,305L1128,250Z" fill="#fda672" stroke="#fda672" stroke-width="1.51"/><path d="M562,1262L434,1329L864,1283Z" fill="#cd6b41" stroke="#cd6b41" stroke-width="1.51"/><path d="M831,640L965,823L1011,576Z" fill="#f88255" stroke="#f88255" stroke-width="1.51"/><path d="M1029,455L1011,576L1055,514Z" fill="#fb8c59" stroke="#fb8c59" stroke-width="1.51"/><path d="M965,823L792,902L993,1015Z" fill="#ed6c43" stroke="#ed6c43" stroke-width="1.51"/><path d="M902,-81L753,72L1013,130Z" fill="#ffb987" stroke="#ffb987" stroke-width="1.51"/><path d="M827,413L1011,576L1029,455Z" fill="#fd945f" stroke="#fd945f" stroke-width="1.51"/><path d="M970,305L827,413L1029,455Z" fill="#fd9f69" stroke="#fd9f69" stroke-width="1.51"/><path d="M937,1180L864,1283L992,1328Z" fill="#cd552e" stroke="#cd552e" stroke-width="1.51"/><path d="M827,413L831,640L1011,576Z" fill="#fd925d" stroke="#fd925d" stroke-width="1.51"/><path d="M755,279L970,305L1013,130Z" fill="#fead77" stroke="#fead77" stroke-width="1.51"/><path d="M753,72L755,279L1013,130Z" fill="#feb780" stroke="#feb780" stroke-width="1.51"/><path d="M790,1065L937,1180L993,1015Z" fill="#e16036" stroke="#e16036" stroke-width="1.51"/><path d="M792,902L790,1065L993,1015Z" fill="#e96940" stroke="#e96940" stroke-width="1.51"/><path d="M841,-240L902,-81L962,-209Z" fill="#ffc29a" stroke="#ffc29a" stroke-width="1.51"/><path d="M831,640L774,869L965,823Z" fill="#f57f55" stroke="#f57f55" stroke-width="1.51"/><path d="M755,279L827,413L970,305Z" fill="#fdac75" stroke="#fdac75" stroke-width="1.51"/><path d="M774,869L792,902L965,823Z" fill="#f1774d" stroke="#f1774d" stroke-width="1.51"/><path d="M735,-5L753,72L902,-81Z" fill="#ffc292" stroke="#ffc292" stroke-width="1.51"/><path d="M790,1065L864,1283L937,1180Z" fill="#da5d33" stroke="#da5d33" stroke-width="1.51"/><path d="M841,-240L735,-5L902,-81Z" fill="#ffc59a" stroke="#ffc59a" stroke-width="1.51"/><path d="M827,413L622,458L831,640Z" fill="#fda06a" stroke="#fda06a" stroke-width="1.51"/><path d="M631,-135L735,-5L841,-240Z" fill="#ffcca1" stroke="#ffcca1" stroke-width="1.51"/><path d="M790,1065L617,1146L864,1283Z" fill="#dc673b" stroke="#dc673b" stroke-width="1.51"/><path d="M617,1146L562,1262L864,1283Z" fill="#d5693f" stroke="#d5693f" stroke-width="1.51"/><path d="M596,827L774,869L831,640Z" fill="#f6885c" stroke="#f6885c" stroke-width="1.51"/><path d="M541,673L596,827L831,640Z" fill="#f99466" stroke="#f99466" stroke-width="1.51"/><path d="M560,-259L631,-135L841,-240Z" fill="#ffd3ac" stroke="#ffd3ac" stroke-width="1.51"/><path d="M622,458L541,673L831,640Z" fill="#fc9e6b" stroke="#fc9e6b" stroke-width="1.51"/><path d="M755,279L622,458L827,413Z" fill="#fdaf78" stroke="#fdaf78" stroke-width="1.51"/><path d="M753,72L573,220L755,279Z" fill="#fdc089" stroke="#fdc089" stroke-width="1.51"/><path d="M593,927L617,1146L790,1065Z" fill="#e77549" stroke="#e77549" stroke-width="1.51"/><path d="M593,927L790,1065L792,902Z" fill="#ed764b" stroke="#ed764b" stroke-width="1.51"/><path d="M774,869L593,927L792,902Z" fill="#f07d51" stroke="#f07d51" stroke-width="1.51"/><path d="M693,33L573,220L753,72Z" fill="#fdc68f" stroke="#fdc68f" stroke-width="1.51"/><path d="M735,-5L693,33L753,72Z" fill="#fec693" stroke="#fec693" stroke-width="1.51"/><path d="M596,827L593,927L774,869Z" fill="#f28458" stroke="#f28458" stroke-width="1.51"/><path d="M573,220L622,458L755,279Z" fill="#fdbb84" stroke="#fdbb84" stroke-width="1.51"/><path d="M573,220L492,339L622,458Z" fill="#fdbd86" stroke="#fdbd86" stroke-width="1.51"/><path d="M631,-135L693,33L735,-5Z" fill="#ffcb9d" stroke="#ffcb9d" stroke-width="1.51"/><path d="M458,103L573,220L693,33Z" fill="#fdca93" stroke="#fdca93" stroke-width="1.51"/><path d="M534,-45L458,103L693,33Z" fill="#fece9c" stroke="#fece9c" stroke-width="1.51"/><path d="M631,-135L534,-45L693,33Z" fill="#fed0a2" stroke="#fed0a2" stroke-width="1.51"/><path d="M593,927L404,1040L617,1146Z" fill="#e87c4f" stroke="#e87c4f" stroke-width="1.51"/><path d="M438,611L541,673L622,458Z" fill="#fda571" stroke="#fda571" stroke-width="1.51"/><path d="M410,436L438,611L622,458Z" fill="#feaf78" stroke="#feaf78" stroke-width="1.51"/><path d="M560,-259L534,-45L631,-135Z" fill="#ffd5ac" stroke="#ffd5ac" stroke-width="1.51"/><path d="M492,339L410,436L622,458Z" fill="#fdb781" stroke="#fdb781" stroke-width="1.51"/><path d="M380,1075L562,1262L617,1146Z" fill="#df7547" stroke="#df7547" stroke-width="1.51"/><path d="M404,1040L380,1075L617,1146Z" fill="#e57c4e" stroke="#e57c4e" stroke-width="1.51"/><path d="M336,-288L392,-235L560,-259Z" fill="#ffdfbc" stroke="#ffdfbc" stroke-width="1.51"/><path d="M392,-235L534,-45L560,-259Z" fill="#ffdab3" stroke="#ffdab3" stroke-width="1.51"/><path d="M410,842L593,927L596,827Z" fill="#f38b5e" stroke="#f38b5e" stroke-width="1.51"/><path d="M541,673L410,842L596,827Z" fill="#f79467" stroke="#f79467" stroke-width="1.51"/><path d="M410,842L404,1040L593,927Z" fill="#f0875a" stroke="#f0875a" stroke-width="1.51"/><path d="M330,1201L434,1329L562,1262Z" fill="#d27448" stroke="#d27448" stroke-width="1.51"/><path d="M380,1075L330,1201L562,1262Z" fill="#de784a" stroke="#de784a" stroke-width="1.51"/><path d="M458,103L492,339L573,220Z" fill="#fdc790" stroke="#fdc790" stroke-width="1.51"/><path d="M322,26L458,103L534,-45Z" fill="#fed3a2" stroke="#fed3a2" stroke-width="1.51"/><path d="M392,-235L322,26L534,-45Z" fill="#fedaad" stroke="#fedaad" stroke-width="1.51"/><path d="M438,611L410,842L541,673Z" fill="#fa9d6e" stroke="#fa9d6e" stroke-width="1.51"/><path d="M458,103L349,375L492,339Z" fill="#fdc790" stroke="#fdc790" stroke-width="1.51"/><path d="M253,1279L134,1335L434,1329Z" fill="#cc774f" stroke="#cc774f" stroke-width="1.51"/><path d="M224,264L349,375L458,103Z" fill="#fdcb95" stroke="#fdcb95" stroke-width="1.51"/><path d="M349,375L410,436L492,339Z" fill="#fdbe87" stroke="#fdbe87" stroke-width="1.51"/><path d="M261,1023L404,1040L410,842Z" fill="#ef885b" stroke="#ef885b" stroke-width="1.51"/><path d="M410,436L218,615L438,611Z" fill="#feae79" stroke="#feae79" stroke-width="1.51"/><path d="M218,615L410,842L438,611Z" fill="#fba273" stroke="#fba273" stroke-width="1.51"/><path d="M322,26L265,70L458,103Z" fill="#fed5a2" stroke="#fed5a2" stroke-width="1.51"/><path d="M265,70L224,264L458,103Z" fill="#fdd29c" stroke="#fdd29c" stroke-width="1.51"/><path d="M218,615L197,832L410,842Z" fill="#f99f74" stroke="#f99f74" stroke-width="1.51"/><path d="M330,1201L253,1279L434,1329Z" fill="#d2774c" stroke="#d2774c" stroke-width="1.51"/><path d="M123,-163L322,26L392,-235Z" fill="#fee0b8" stroke="#fee0b8" stroke-width="1.51"/><path d="M336,-288L123,-163L392,-235Z" fill="#ffe3c0" stroke="#ffe3c0" stroke-width="1.51"/><path d="M197,832L261,1023L410,842Z" fill="#f39165" stroke="#f39165" stroke-width="1.51"/><path d="M349,375L168,440L410,436Z" fill="#febf89" stroke="#febf89" stroke-width="1.51"/><path d="M168,440L218,615L410,436Z" fill="#ffb883" stroke="#ffb883" stroke-width="1.51"/><path d="M261,1023L380,1075L404,1040Z" fill="#e98356" stroke="#e98356" stroke-width="1.51"/><path d="M123,-163L111,-76L322,26Z" fill="#fee1b9" stroke="#fee1b9" stroke-width="1.51"/><path d="M175,180L224,264L265,70Z" fill="#fed3a1" stroke="#fed3a1" stroke-width="1.51"/><path d="M261,1023L330,1201L380,1075Z" fill="#e58153" stroke="#e58153" stroke-width="1.51"/><path d="M261,1023L164,1062L330,1201Z" fill="#e68357" stroke="#e68357" stroke-width="1.51"/><path d="M-70,-291L123,-163L336,-288Z" fill="#ffe9cc" stroke="#ffe9cc" stroke-width="1.51"/><path d="M224,264L168,440L349,375Z" fill="#fec792" stroke="#fec792" stroke-width="1.51"/><path d="M111,-76L265,70L322,26Z" fill="#fedcae" stroke="#fedcae" stroke-width="1.51"/><path d="M164,1062L253,1279L330,1201Z" fill="#df7e52" stroke="#df7e52" stroke-width="1.51"/><path d="M132,801L197,832L218,615Z" fill="#fba47a" stroke="#fba47a" stroke-width="1.51"/><path d="M164,1062L134,1335L253,1279Z" fill="#da7e55" stroke="#da7e55" stroke-width="1.51"/><path d="M197,832L79,963L261,1023Z" fill="#f39168" stroke="#f39168" stroke-width="1.51"/><path d="M79,963L164,1062L261,1023Z" fill="#ed8b62" stroke="#ed8b62" stroke-width="1.51"/><path d="M111,-76L175,180L265,70Z" fill="#fedbac" stroke="#fedbac" stroke-width="1.51"/><path d="M63,653L132,801L218,615Z" fill="#fdaa80" stroke="#fdaa80" stroke-width="1.51"/><path d="M175,180L157,215L224,264Z" fill="#fed2a0" stroke="#fed2a0" stroke-width="1.51"/><path d="M168,440L63,653L218,615Z" fill="#ffb485" stroke="#ffb485" stroke-width="1.51"/><path d="M157,215L168,440L224,264Z" fill="#fecd9b" stroke="#fecd9b" stroke-width="1.51"/><path d="M157,215L-25,432L168,440Z" fill="#ffcb9c" stroke="#ffcb9c" stroke-width="1.51"/><path d="M132,801L79,963L197,832Z" fill="#f79972" stroke="#f79972" stroke-width="1.51"/><path d="M-122,1135L134,1335L164,1062Z" fill="#e2845e" stroke="#e2845e" stroke-width="1.51"/><path d="M-25,432L63,653L168,440Z" fill="#ffbc8e" stroke="#ffbc8e" stroke-width="1.51"/><path d="M111,-76L-105,23L175,180Z" fill="#fedfb6" stroke="#fedfb6" stroke-width="1.51"/><path d="M-105,23L-84,188L175,180Z" fill="#feddb2" stroke="#feddb2" stroke-width="1.51"/><path d="M-108,322L-25,432L157,215Z" fill="#ffd2a6" stroke="#ffd2a6" stroke-width="1.51"/><path d="M-84,188L157,215L175,180Z" fill="#fed7a9" stroke="#fed7a9" stroke-width="1.51"/><path d="M-84,188L-108,322L157,215Z" fill="#fed7ac" stroke="#fed7ac" stroke-width="1.51"/><path d="M79,963L-122,1135L164,1062Z" fill="#ec8d68" stroke="#ec8d68" stroke-width="1.51"/><path d="M-25,432L-68,596L63,653Z" fill="#ffba8f" stroke="#ffba8f" stroke-width="1.51"/><path d="M-49,856L79,963L132,801Z" fill="#f79b76" stroke="#f79b76" stroke-width="1.51"/><path d="M63,653L-49,856L132,801Z" fill="#fba581" stroke="#fba581" stroke-width="1.51"/><path d="M-122,1135L-142,1380L134,1335Z" fill="#d48262" stroke="#d48262" stroke-width="1.51"/><path d="M-70,-291L111,-76L123,-163Z" fill="#ffe9cb" stroke="#ffe9cb" stroke-width="1.51"/><path d="M-70,-291L-186,-67L111,-76Z" fill="#feeacf" stroke="#feeacf" stroke-width="1.51"/><path d="M-186,-67L-105,23L111,-76Z" fill="#fee7c6" stroke="#fee7c6" stroke-width="1.51"/><path d="M-68,596L-49,856L63,653Z" fill="#fdae89" stroke="#fdae89" stroke-width="1.51"/><path d="M-49,856L-104,926L79,963Z" fill="#f69977" stroke="#f69977" stroke-width="1.51"/><path d="M-104,926L-122,1135L79,963Z" fill="#f19270" stroke="#f19270" stroke-width="1.51"/><path d="M-191,611L-199,841L-68,596Z" fill="#ffb291" stroke="#ffb291" stroke-width="1.51"/><path d="M-68,596L-199,841L-49,856Z" fill="#fdaa8b" stroke="#fdaa8b" stroke-width="1.51"/><path d="M-108,322L-308,494L-25,432Z" fill="#ffcba5" stroke="#ffcba5" stroke-width="1.51"/><path d="M-308,494L-191,611L-25,432Z" fill="#ffc29c" stroke="#ffc29c" stroke-width="1.51"/><path d="M-191,611L-68,596L-25,432Z" fill="#ffbd94" stroke="#ffbd94" stroke-width="1.51"/><path d="M-295,1245L-142,1380L-122,1135Z" fill="#da876a" stroke="#da876a" stroke-width="1.51"/><path d="M-170,304L-308,494L-108,322Z" fill="#ffd1ac" stroke="#ffd1ac" stroke-width="1.51"/><path d="M-253,1031L-122,1135L-104,926Z" fill="#f09374" stroke="#f09374" stroke-width="1.51"/><path d="M-170,304L-108,322L-84,188Z" fill="#ffd8b0" stroke="#ffd8b0" stroke-width="1.51"/><path d="M-312,-207L-186,-67L-70,-291Z" fill="#ffefda" stroke="#ffefda" stroke-width="1.51"/><path d="M-199,841L-104,926L-49,856Z" fill="#f99f80" stroke="#f99f80" stroke-width="1.51"/><path d="M-105,23L-299,48L-84,188Z" fill="#ffe3bf" stroke="#ffe3bf" stroke-width="1.51"/><path d="M-299,48L-170,304L-84,188Z" fill="#ffdeb9" stroke="#ffdeb9" stroke-width="1.51"/><path d="M-307,1204L-295,1245L-122,1135Z" fill="#e38b6e" stroke="#e38b6e" stroke-width="1.51"/><path d="M-199,841L-253,1031L-104,926Z" fill="#f79b7d" stroke="#f79b7d" stroke-width="1.51"/><path d="M-186,-67L-299,48L-105,23Z" fill="#ffe8c9" stroke="#ffe8c9" stroke-width="1.51"/><path d="M-253,1031L-307,1204L-122,1135Z" fill="#e98f71" stroke="#e98f71" stroke-width="1.51"/><path d="M-308,494L-199,841L-191,611Z" fill="#ffb797" stroke="#ffb797" stroke-width="1.51"/><path d="M-299,48L-308,494L-170,304Z" fill="#ffdab8" stroke="#ffdab8" stroke-width="1.51"/><path d="M-312,-207L-299,48L-186,-67Z" fill="#ffedd5" stroke="#ffedd5" stroke-width="1.51"/><path d="M-308,494L-253,1031L-199,841Z" fill="#fdab90" stroke="#fdab90" stroke-width="1.51"/><path d="M-308,494L-307,1204L-253,1031Z" fill="#f9a085" stroke="#f9a085" stroke-width="1.51"/><path d="M-312,-207L-308,494L-299,48Z" fill="#ffe5c5" stroke="#ffe5c5" stroke-width="1.51"/></svg>